# Blender 4.0.2
# www.blender.org
mtllib Bullet_in_flight_with_shell_casing__0518051642_refine.mtl
o Mesh_0
v 0.076747 -0.890475 -0.235288
v -0.080296 -0.909433 -0.209923
v 0.002463 -0.846344 -0.263118
v -0.041683 -0.749540 -0.206325
v 0.047917 -0.738766 -0.197745
v 0.013965 -0.656312 -0.236217
v -0.108983 -0.844345 -0.235289
v -0.013713 0.077639 -0.211356
v -0.000239 0.153462 -0.174827
v 0.122006 -0.918013 -0.160189
v 0.144419 -0.749508 -0.132749
v 0.053554 0.223925 -0.161519
v 0.238419 -0.832589 -0.078521
v 0.128475 -0.823156 -0.213964
v -0.147489 -0.661690 -0.199299
v 0.119493 0.136290 -0.116869
v -0.098713 0.132627 -0.150752
v -0.070831 0.352947 -0.146751
v -0.207152 -0.885382 -0.140967
v -0.243301 -0.817329 -0.004143
v -0.196167 -0.821351 -0.172513
v -0.095379 0.506963 -0.073800
v -0.004465 0.543800 -0.096341
v -0.228855 -0.598014 0.006615
v 0.143783 0.046156 -0.155528
v 0.072126 0.366403 -0.137868
v -0.175544 -0.916340 0.131967
v 0.193619 -0.737426 -0.029564
v 0.141662 0.211509 -0.101702
v 0.164329 0.179015 -0.012438
v 0.164825 -0.884003 -0.182341
v -0.235680 -0.903882 -0.000755
v -0.147229 0.278771 -0.070667
v -0.164052 -0.738353 -0.114103
v 0.223168 -0.896103 -0.071219
v 0.241321 -0.871703 0.031151
v 0.184827 -0.658880 -0.143325
v -0.149211 0.021809 -0.163069
v -0.007447 0.640319 -0.015166
v 0.060957 0.534687 -0.078261
v -0.170619 0.131458 -0.029115
v 0.056994 0.594266 -0.011953
v -0.227446 -0.656121 -0.054815
v 0.139360 0.260430 -0.046293
v -0.076711 0.561821 0.026666
v -0.138534 0.432521 -0.007651
v -0.154484 0.233637 0.058925
v 0.076162 0.533433 0.044653
v 0.225699 -0.665595 -0.019863
v 0.130437 0.418173 -0.022222
v -0.204976 -0.728017 0.025620
v 0.122656 0.287620 0.087567
v -0.081637 0.437089 0.098679
v -0.203374 0.058758 0.026130
v 0.213312 -0.779696 0.021759
v -0.212770 -0.855762 0.115515
v 0.215290 -0.041116 -0.016736
v -0.135515 0.126654 0.103150
v 0.175165 -0.806143 0.143695
v 0.076648 -0.789240 0.193994
v 0.179870 -0.918988 0.072171
v -0.149923 -0.735357 0.123299
v 0.130050 -0.715167 0.131738
v -0.000227 0.616507 0.033081
v 0.166608 0.048856 0.103660
v 0.172204 -0.684347 0.134534
v 0.130700 0.136841 0.087817
v -0.061601 0.107618 0.164497
v 0.013278 0.140122 0.152407
v -0.073134 0.234187 0.137751
v 0.033806 0.380694 0.127520
v -0.167330 -0.667831 0.148650
v 0.104155 0.071690 0.158586
v 0.000715 0.051162 0.197190
v -0.067993 -0.673163 0.208110
v -0.149152 -0.108426 0.156153
v -0.033105 -0.734572 0.183510
v 0.045183 -0.636963 0.215649
v -0.042404 -0.920055 0.188639
v 0.054602 -0.890650 0.223399
v -0.108765 -0.879372 0.213653
v 0.174700 -0.876834 0.161279
v -0.101466 -0.815750 0.214297
vn -0.0567 -0.5991 -0.7987
vn -0.2251 -0.4383 -0.8701
vn 0.3604 0.0185 -0.9326
vn 0.0205 0.5129 -0.8582
vn 0.3417 0.0447 -0.9387
vn 0.2624 0.4177 -0.8699
vn -0.2127 0.4205 -0.8820
vn 0.4778 0.0126 -0.8784
vn -0.2236 0.0246 -0.9744
vn 0.5178 -0.1301 -0.8455
vn 0.1328 -0.3736 -0.9180
vn -0.2135 -0.1804 -0.9601
vn -0.3530 0.0486 -0.9344
vn -0.4717 0.5463 -0.6921
vn 0.4645 -0.2101 -0.8603
vn 0.3742 0.3477 -0.8597
vn 0.3612 -0.7838 -0.5051
vn -0.6085 -0.2643 -0.7483
vn -0.4856 -0.4949 -0.7207
vn 0.4940 0.5936 -0.6353
vn -0.3013 0.4568 -0.8370
vn 0.0425 0.1540 -0.9872
vn 0.7734 0.1409 -0.6180
vn 0.7095 0.4471 -0.5448
vn -0.3404 0.6257 -0.7019
vn -0.5233 -0.5804 -0.6240
vn -0.4248 0.2889 -0.8579
vn 0.0520 -0.9271 -0.3713
vn 0.4404 0.4515 -0.7760
vn 0.5211 -0.2433 -0.8181
vn -0.2469 0.0488 -0.9678
vn -0.9623 0.0320 -0.2702
vn 0.0465 0.1577 -0.9864
vn 0.0374 0.2430 -0.9693
vn 0.4726 -0.8144 -0.3368
vn 0.5048 -0.3187 -0.8022
vn 0.4410 0.0507 -0.8961
vn -0.7518 0.1070 -0.6506
vn -0.2772 -0.9436 -0.1809
vn -0.8335 0.4951 -0.2452
vn -0.7869 0.4099 -0.4613
vn 0.4804 0.6672 -0.5692
vn -0.7724 0.1671 -0.6127
vn 0.2941 0.3364 -0.8946
vn -0.3573 0.3527 -0.8648
vn 0.7253 0.5527 -0.4105
vn -0.9280 0.0174 -0.3721
vn 0.8993 0.0448 -0.4351
vn 0.8029 -0.0057 -0.5961
vn 0.8627 0.1236 -0.4903
vn -0.1001 -0.9938 -0.0480
vn -0.0114 -0.9997 -0.0234
vn 0.8391 -0.4152 -0.3515
vn 0.9266 -0.2102 -0.3118
vn 0.2708 -0.9600 -0.0715
vn 0.8439 -0.2568 -0.4710
vn 0.9166 0.2187 -0.3347
vn 0.7601 0.4182 -0.4974
vn 0.8199 0.2387 -0.5203
vn -0.0440 -0.9990 0.0068
vn -0.9731 -0.0939 -0.2104
vn 0.8826 -0.3521 -0.3113
vn -0.8608 -0.0069 -0.5089
vn -0.8343 -0.3192 -0.4494
vn -0.7730 0.4519 -0.4452
vn 0.9604 0.2276 -0.1610
vn 0.9632 -0.2442 -0.1126
vn 0.9053 0.4249 0.0026
vn 0.9495 0.0174 -0.3134
vn -0.9580 0.0456 -0.2832
vn -0.9336 0.1894 -0.3043
vn -0.7832 0.5953 -0.1796
vn -0.4095 0.5798 -0.7044
vn 0.2879 0.6216 -0.7285
vn 0.6372 -0.7675 0.0699
vn -0.9877 0.1566 -0.0007
vn -0.8416 -0.4976 -0.2097
vn 0.4991 0.6592 -0.5625
vn -0.9085 0.2014 -0.3660
vn 0.8767 0.3827 -0.2914
vn -0.9784 -0.1608 0.1296
vn 0.9925 0.0384 0.1160
vn -0.8911 0.4469 -0.0784
vn -0.9971 0.0694 -0.0317
vn -0.8639 0.2208 0.4528
vn 0.4565 0.6789 0.5750
vn 0.9512 0.2978 0.0811
vn 0.8709 -0.4228 0.2504
vn 0.9443 0.0141 0.3289
vn 0.9113 0.2318 0.3402
vn 0.9207 0.3785 0.0950
vn -0.5476 0.7149 0.4348
vn -0.9717 -0.0768 0.2233
vn -0.8444 0.4560 -0.2811
vn -0.9312 -0.1208 0.3440
vn 0.9480 0.3135 0.0546
vn -0.8493 0.2887 0.4420
vn 0.7005 0.6760 0.2288
vn 0.7594 0.6142 0.2145
vn 0.5449 -0.7744 0.3216
vn 0.8012 0.4061 0.4396
vn -0.4018 0.4697 0.7861
vn -0.8074 0.5416 0.2340
vn 0.8879 0.3054 0.3440
vn -0.9044 0.2811 0.3210
vn 0.9402 0.0507 0.3367
vn -0.9118 0.0232 0.4100
vn -0.8097 0.1734 0.5606
vn -0.0132 -0.9993 -0.0344
vn -0.8395 -0.4234 0.3406
vn 0.9506 0.2157 0.2232
vn -0.9650 -0.0662 0.2537
vn 0.8832 0.1077 0.4564
vn 0.3046 0.9066 0.2919
vn -0.6863 0.1706 0.7071
vn 0.6003 0.2464 0.7609
vn 0.2938 0.3916 0.8720
vn 0.7050 -0.6244 0.3363
vn -0.7922 0.3828 0.4753
vn 0.7838 -0.0444 0.6194
vn -0.6922 0.1084 0.7136
vn -0.0542 0.3645 0.9296
vn 0.9325 0.0223 0.3604
vn 0.4824 0.0272 0.8755
vn -0.8196 -0.3742 0.4338
vn 0.6674 0.0364 0.7438
vn 0.6844 0.3902 0.6159
vn -0.5919 0.2098 0.7782
vn -0.2549 0.7930 0.5533
vn -0.3011 -0.1294 0.9448
vn -0.1545 0.1806 0.9714
vn -0.2636 -0.7795 0.5683
vn 0.4002 0.5945 0.6974
vn -0.0518 0.1071 0.9929
vn 0.4553 0.0531 0.8888
vn 0.4729 0.2098 0.8558
vn -0.6907 0.3185 0.6492
vn -0.3740 0.5872 0.7179
vn -0.4837 -0.4142 0.7710
vn -0.9129 0.0242 0.4074
vn -0.6943 -0.2427 0.6775
vn -0.3874 -0.5240 0.7585
vn 0.1938 0.5455 0.8154
vn 0.3143 -0.5147 0.7976
vn 0.3198 -0.5099 0.7986
vn 0.2472 0.4076 0.8791
vn -0.0540 0.4551 0.8888
vn -0.5134 0.0052 0.8581
vn 0.5440 0.0223 0.8388
vn -0.3762 0.1170 0.9191
vn -0.6761 0.0701 0.7334
vn 0.0625 0.3075 0.9495
vn 0.0488 -0.3474 0.9364
vn 0.3410 0.0472 0.9389
vn 0.1699 -0.9335 0.3157
vn 0.3154 -0.8506 0.4207
vn -0.0894 -0.6234 0.7768
vn -0.0598 -0.0032 0.9982
vn -0.0912 0.0782 0.9928
vn -0.2722 0.0082 0.9622
vn 0.4388 0.1610 0.8841
vn 0.0704 0.2636 0.9620
vt 0.024517 0.596073
vt 0.020476 0.683253
vt 0.056415 0.632653
vt 0.067094 0.690652
vt 0.063616 0.564215
vt 0.122828 0.649381
vt 0.125350 0.597076
vt 0.609454 0.621726
vt 0.588271 0.536414
vt 0.179525 0.619343
vt 0.177413 0.519015
vt 0.177797 0.706559
vt 0.027036 0.539152
vt 0.583478 0.699786
vt 0.883652 0.347175
vt 0.895727 0.428876
vt 0.958326 0.408318
vt 0.659534 0.610246
vt 0.388623 0.174370
vt 0.385863 0.223624
vt 0.424021 0.177652
vt 0.977188 0.340881
vt 0.943973 0.358411
vt 0.999524 0.409595
vt 0.118410 0.528896
vt 0.652968 0.670841
vt 0.795660 0.642217
vt 0.704452 0.577482
vt 0.061738 0.476530
vt 0.832151 0.390543
vt 0.291318 0.244889
vt 0.647434 0.533277
vt 0.693477 0.520202
vt 0.931204 0.274467
vt 0.793143 0.561432
vt 0.910826 0.585417
vt 0.424286 0.107645
vt 0.211508 0.397030
vt 0.354170 0.392527
vt 0.263126 0.337844
vt 0.153395 0.178858
vt 0.203478 0.241960
vt 0.429922 0.385691
vt 0.357625 0.311945
vt 0.729408 0.495014
vt 0.112339 0.348962
vt 0.901627 0.549243
vt 0.909217 0.642427
vt 0.126185 0.465248
vt 0.791375 0.277477
vt 0.540910 0.452590
vt 0.833853 0.491789
vt 0.152857 0.100437
vt 0.360764 0.049557
vt 0.676556 0.469577
vt 0.025317 0.471216
vt 0.979486 0.268907
vt 0.171557 0.451752
vt 0.826890 0.306446
vt 0.051342 0.418654
vt 0.105586 0.433017
vt 0.405527 0.281914
vt 0.070739 0.289210
vt 0.000476 0.319204
vt 0.990000 0.569049
vt 0.413339 0.048556
vt 0.289078 0.262923
vt 0.871863 0.262953
vt 0.954361 0.529930
vt 0.164121 0.306990
vt 0.758338 0.418654
vt 0.148253 0.238967
vt 0.999524 0.818074
vt 0.905300 0.846021
vt 0.960895 0.854865
vt 0.164711 0.915237
vt 0.138680 0.999574
vt 0.183343 0.997575
vt 0.543800 0.968195
vt 0.848197 0.913305
vt 0.741995 0.875660
vt 0.005773 0.285971
vt 0.947183 0.210723
vt 0.828693 0.194634
vt 0.963510 0.803292
vt 0.104852 0.981849
vt 0.135513 0.903521
vt 0.587560 0.895583
vt 0.677231 0.942428
vt 0.644391 0.884313
vt 0.934633 0.752558
vt 0.837391 0.748365
vt 0.356305 0.233552
vt 0.067467 0.924521
vt 0.051442 0.996850
vt 0.497927 0.201540
vt 0.211955 0.043578
vt 0.985433 0.194634
vt 0.027272 0.924281
vt 0.078889 0.866527
vt 0.706595 0.690375
vt 0.633425 0.714220
vt 0.702215 0.755993
vt 0.796102 0.815135
vt 0.339121 0.000426
vt 0.869424 0.201426
vt 0.640691 0.806098
vt 0.595805 0.853197
vt 0.615310 0.765028
vt 0.485918 0.719463
vt 0.163149 0.039251
vt 0.042112 0.690375
vt 0.055580 0.771856
vt 0.114567 0.726553
vt 0.115987 0.802213
vt 0.159193 0.783199
vt 0.158357 0.722847
vt 0.000476 0.707356
vt 0.018151 0.767092
vt 0.186409 0.838346
vt 0.580506 0.798214
vt 0.254919 0.000426
vt 0.014904 0.854031
s 0
usemtl Material_0
f 1/1/1 2/2/1 3/3/1
f 3/3/2 2/2/2 7/4/2
f 1/1/3 3/3/3 14/5/3
f 3/3/4 4/6/4 5/7/4
f 8/8/5 25/9/5 6/10/5
f 14/5/6 3/3/6 5/7/6
f 4/6/7 3/3/7 7/4/7
f 25/9/8 37/11/8 6/10/8
f 15/12/9 8/8/9 6/10/9
f 14/5/10 31/13/10 1/1/10
f 5/7/11 4/6/11 6/10/11
f 15/12/12 6/10/12 4/6/12
f 15/12/13 38/14/13 8/8/13
f 34/15/14 4/16/14 7/17/14
f 5/7/15 6/10/15 37/11/15
f 8/8/16 9/18/16 25/9/16
f 10/19/17 1/20/17 31/21/17
f 19/22/18 21/23/18 7/17/18
f 2/24/19 19/22/19 7/17/19
f 11/25/20 14/5/20 5/7/20
f 17/26/21 9/18/21 8/8/21
f 9/18/22 18/27/22 12/28/22
f 13/29/23 31/13/23 14/5/23
f 11/25/24 13/29/24 14/5/24
f 21/23/25 34/15/25 7/17/25
f 4/16/26 34/15/26 15/30/26
f 38/14/27 17/26/27 8/8/27
f 1/20/28 10/19/28 2/31/28
f 25/9/29 9/18/29 16/32/29
f 9/18/30 12/28/30 29/33/30
f 17/26/31 18/27/31 9/18/31
f 19/22/32 20/34/32 21/23/32
f 12/28/33 18/27/33 26/35/33
f 23/36/34 26/35/34 18/27/34
f 35/37/35 10/19/35 31/21/35
f 37/11/36 11/25/36 5/7/36
f 16/32/37 9/18/37 29/33/37
f 18/38/38 17/39/38 33/40/38
f 32/41/39 19/42/39 2/31/39
f 34/15/40 21/23/40 20/34/40
f 17/39/41 38/43/41 41/44/41
f 44/45/42 29/33/42 12/28/42
f 22/46/43 18/38/43 33/40/43
f 26/35/44 23/36/44 40/47/44
f 18/27/45 22/48/45 23/36/45
f 11/25/46 28/49/46 13/29/46
f 24/50/47 38/43/47 15/30/47
f 57/51/48 37/11/48 25/9/48
f 26/35/49 44/45/49 12/28/49
f 26/35/50 50/52/50 44/45/50
f 27/53/51 32/41/51 2/31/51
f 27/53/52 2/31/52 61/54/52
f 37/11/53 28/49/53 11/25/53
f 29/33/54 30/55/54 16/32/54
f 10/19/55 35/37/55 61/54/55
f 13/29/56 35/56/56 31/13/56
f 25/9/57 30/55/57 57/51/57
f 25/9/58 16/32/58 30/55/58
f 50/52/59 26/35/59 40/47/59
f 10/19/60 61/54/60 2/31/60
f 19/22/61 32/57/61 20/34/61
f 28/49/62 37/11/62 49/58/62
f 17/39/63 41/44/63 33/40/63
f 34/15/64 43/59/64 15/30/64
f 15/30/65 43/59/65 24/50/65
f 29/33/66 44/45/66 30/55/66
f 35/56/67 13/29/67 36/60/67
f 28/49/68 55/61/68 13/29/68
f 57/51/69 49/58/69 37/11/69
f 54/62/70 38/43/70 24/50/70
f 54/62/71 41/44/71 38/43/71
f 22/46/72 45/63/72 39/64/72
f 22/48/73 39/65/73 23/36/73
f 39/65/74 40/47/74 23/36/74
f 35/37/75 36/66/75 61/54/75
f 41/44/76 47/67/76 33/40/76
f 43/59/77 34/15/77 51/68/77
f 42/69/78 40/47/78 39/65/78
f 22/46/79 33/40/79 46/70/79
f 42/69/80 50/52/80 40/47/80
f 24/50/81 43/59/81 51/68/81
f 44/45/82 50/52/82 52/71/82
f 46/70/83 45/63/83 22/46/83
f 47/67/84 46/70/84 33/40/84
f 46/70/85 47/67/85 53/72/85
f 39/73/86 48/74/86 42/75/86
f 55/61/87 36/60/87 13/29/87
f 66/76/88 28/77/88 49/78/88
f 66/76/89 49/78/89 57/79/89
f 50/80/90 48/74/90 52/81/90
f 42/75/91 48/74/91 50/80/91
f 45/63/92 64/82/92 39/64/92
f 56/83/93 20/34/93 32/57/93
f 51/68/94 34/15/94 20/34/94
f 72/84/95 24/50/95 51/68/95
f 52/71/96 30/55/96 44/45/96
f 53/72/97 45/63/97 46/70/97
f 64/85/98 48/74/98 39/73/98
f 55/86/99 28/77/99 63/87/99
f 66/76/100 63/87/100 28/77/100
f 65/88/101 30/89/101 67/90/101
f 64/85/102 45/91/102 53/92/102
f 58/93/103 41/44/103 54/62/103
f 55/86/104 59/94/104 36/95/104
f 56/83/105 51/68/105 20/34/105
f 52/81/106 67/90/106 30/89/106
f 54/62/107 24/50/107 76/96/107
f 76/96/108 58/93/108 54/62/108
f 61/54/109 79/97/109 27/53/109
f 32/57/110 27/98/110 56/83/110
f 57/79/111 30/89/111 65/88/111
f 41/44/112 58/93/112 47/67/112
f 36/95/113 59/94/113 82/99/113
f 59/94/114 55/86/114 60/100/114
f 47/101/115 58/102/115 70/103/115
f 52/81/116 48/74/116 71/104/116
f 48/74/117 64/85/117 71/104/117
f 36/66/118 82/105/118 61/54/118
f 56/83/119 62/106/119 51/68/119
f 60/100/120 55/86/120 63/87/120
f 47/101/121 70/103/121 53/92/121
f 64/85/122 53/92/122 71/104/122
f 57/79/123 65/88/123 66/76/123
f 67/90/124 52/81/124 69/107/124
f 72/84/125 51/68/125 62/106/125
f 73/108/126 66/76/126 65/88/126
f 65/88/127 67/90/127 73/108/127
f 68/109/128 58/102/128 76/110/128
f 58/102/129 68/109/129 69/107/129
f 69/107/130 70/103/130 58/102/130
f 71/104/131 53/92/131 70/103/131
f 79/97/132 81/111/132 27/53/132
f 73/108/133 67/90/133 69/107/133
f 71/104/134 70/103/134 69/107/134
f 52/81/135 71/104/135 69/107/135
f 82/99/136 59/94/136 60/100/136
f 56/112/137 83/113/137 62/114/137
f 62/114/138 83/113/138 77/115/138
f 75/116/139 72/117/139 62/114/139
f 24/50/140 72/84/140 76/96/140
f 56/112/141 27/118/141 81/119/141
f 62/114/142 77/115/142 75/116/142
f 60/100/143 63/87/143 77/115/143
f 63/87/144 78/120/144 77/115/144
f 66/76/145 78/120/145 63/87/145
f 73/108/146 69/107/146 74/121/146
f 69/107/147 68/109/147 74/121/147
f 72/117/148 75/116/148 76/110/148
f 66/76/149 73/108/149 78/120/149
f 74/121/150 68/109/150 76/110/150
f 81/119/151 83/113/151 56/112/151
f 60/100/152 77/115/152 83/113/152
f 75/116/153 77/115/153 78/120/153
f 78/120/154 73/108/154 74/121/154
f 61/54/155 80/122/155 79/97/155
f 82/105/156 80/122/156 61/54/156
f 79/97/157 80/122/157 81/111/157
f 80/123/158 83/113/158 81/119/158
f 78/120/159 76/110/159 75/116/159
f 74/121/160 76/110/160 78/120/160
f 82/99/161 60/100/161 80/123/161
f 60/100/162 83/113/162 80/123/162
